<?xml version="1.0"?>
<svg xmlns="http://www.w3.org/2000/svg" height="512px" viewBox="0 0 511.99958 511" width="512px" class=""><g><path d="m189.871094 141.734375c10.621094 14.875 17.128906 24.628906 17.128906 37.21875v24.734375c0 18.441406 12.867188 33.914062 30.046875 37.839844.476563 10.5625 8.253906 18.972656 18.953125 18.972656 10.714844 0 20.402344-8.429688 20.972656-19.019531 17.183594-4.003907 30.027344-19.421875 30.027344-37.792969v-24.734375c0-11.847656 5.851562-20.796875 15.398438-34.417969 10.832031-15.460937 24.285156-34.652344 24.59375-63.230468.003906-.15625.007812-.3125.007812-.472657v-.535156c0-.15625-.003906-.308594-.007812-.464844-.5-47.496093-36.585938-79.332031-90.109376-79.332031-24.785156 0-46.582031 6.769531-63.035156 19.578125-18.34375 14.28125-28.5625 35.457031-28.84375 59.722656-.003906.164063-.003906.328125-.003906.496094v.535156c0 .183594.003906.367188.007812.546875.351563 26.023438 13.367188 44.25 24.863282 60.355469zm77.128906 40.765625v20h-20v-20zm-10.117188-142c15.027344 0 49.941407 3.910156 50.113282 40.0625-.078125 16.363281-7.710938 27.25-17.355469 41.015625-4.523437 6.453125-9.300781 13.277344-13.296875 20.921875h-38.558594c-4.511718-8.804688-10.09375-16.632812-15.359375-24.007812-9.292969-13.019532-17.328125-24.269532-17.425781-37.949219.175781-29.515625 26.882812-40.042969 51.882812-40.042969zm195.980469 214.839844c-.003906-.03125-.007812-.066406-.011719-.097656l54.746094-68.226563c4.164063-5.191406 5.476563-12.113281 3.496094-18.46875s-6.996094-11.308594-13.375-13.210937l-107-31.9375c-10.582031-3.160157-21.726562 2.859374-24.886719 13.445312-3.15625 10.582031 2.863281 21.726562 13.445313 24.882812l78.519531 23.4375-46.273437 57.664063-151.402344 43.199219c-1.382813.058594-2.757813.269531-4.117188.621094-1.339844-.347657-2.703125-.558594-4.070312-.621094l-151.730469-43.535156-46-57.328126 78.515625-23.4375c10.585938-3.15625 16.605469-14.296874 13.445312-24.882812-3.15625-10.582031-14.300781-16.605469-24.882812-13.445312l-107 31.9375c-6.378906 1.902343-11.394531 6.855468-13.375 13.210937s-.671875 13.277344 3.496094 18.46875l55.222656 68.816406-55.546875 73.0625c-3.925781 5.164063-5.101563 11.914063-3.15625 18.101563s6.769531 11.050781 12.945313 13.039062l46.132812 14.867188v26.820312c0 35.542969 23.871094 67.179688 58.050781 76.929688l99.074219 28.265625c13.015625 3.714843 26.394531 5.570312 39.777344 5.570312 13.453125 0 26.90625-1.875 39.984375-5.628906l98.175781-28.167969c34.113281-9.789062 57.9375-41.410156 57.9375-76.898437v-27.300781l45.101562-14.445313c6.15625-1.976563 10.980469-6.804687 12.949219-12.964844 1.96875-6.160156.835938-12.890625-3.039062-18.066406zm-362.367187 25.976562 127.042968 36.453125-39.125 53.273438-125.40625-40.417969zm38.527344 158.871094c-17.089844-4.875-29.023438-20.691406-29.023438-38.464844v-13.925781l79.863281 25.738281c2.023438.652344 4.089844.964844 6.132813.964844 6.246094 0 12.28125-2.933594 16.121094-8.160156l33.882812-46.132813v110.164063c-2.648438-.539063-5.285156-1.171875-7.898438-1.914063zm283.976562-38.394531c0 17.746093-11.914062 33.554687-28.96875 38.449219l-98.175781 28.167968c-3.257813.9375-6.546875 1.699219-9.855469 2.3125v-109.851562l32.792969 45.347656c3.832031 5.300781 9.910156 8.28125 16.207031 8.28125 2.035156 0 4.089844-.308594 6.101562-.953125l81.898438-26.238281zm-80.292969-30.765625-38.4375-53.148438 128.085938-36.546875 36.8125 49.183594zm0 0" data-original="#000000" class="active-path" data-old_color="#DDDDDD" fill="#FFFFFF"/></g> </svg>
